Patient4_TMGait_0pt7_01_left_27_GRF.mot
version=1
nRows=45
nColumns=19
inDegrees=no
endheader
time	F1x	F1y	F1z	M1x	M1y	M1z	F2x	F2y	F2z	M2x	M2y	M2z	EC1x	EC1y	EC1z	EC2x	EC2y	EC2z
31.11	-8.3985	-3.3444	-3.3518	3.1628	-1.9421	-2.9092	-25.1405	769.497	-109.186	277.7938	115.99	799.3393	-0.0592	0.0182	-0.0073	-0.0462	0.0165	0.9585
31.1215	-5.5001	-1.1191	-2.144	1.7326	-1.4314	-0.83908	-25.5498	771.4533	-100.4234	277.0402	109.448	801.9776	-0.0592	0.0182	-0.0073	-0.0462	0.0165	0.9585
31.133	-3.1658	0.76241	-1.1445	0.51563	-1.0132	0.99359	-25.0827	771.8073	-92.346	276.0712	102.8424	801.119	-0.0592	0.0182	-0.0073	-0.0462	0.0165	0.9585
31.1445	-1.476	2.2196	-0.41251	-0.42373	-0.69346	2.4842	-23.718	770.8474	-85.3728	275.0672	96.4584	797.0219	-0.0592	0.0182	-0.0073	-0.0462	0.0165	0.9585
31.156	-0.36113	3.273	0.083636	-1.091	-0.47997	3.6077	-21.4773	769.052	-79.6468	274.1831	90.4597	790.3799	-0.0592	0.0182	-0.0073	-0.0462	0.0165	0.9585
31.1675	0.2754	3.9792	0.37442	-1.5249	-0.34976	4.4049	-18.5344	766.9513	-75.1144	273.5288	84.9289	782.1188	-0.0592	0.0182	-0.0073	-0.0462	0.0165	0.9585
31.179	0.55043	4.3974	0.52496	-1.771	-0.29349	4.8957	-15.0493	764.8758	-71.6034	273.1245	79.8655	772.9573	-0.0592	0.0182	-0.0073	-0.0462	0.0165	0.9585
31.1905	0.56802	4.5878	0.58192	-1.874	-0.29644	5.1299	-11.2545	762.9232	-68.9635	272.9061	75.3077	763.4113	-0.0592	0.0182	-0.0073	-0.0462	0.0165	0.9585
31.202	0.40376	4.5445	0.58904	-1.8584	-0.35156	5.0769	-7.2895	761.0176	-66.984	272.7645	71.2011	753.7248	-0.0592	0.0182	-0.0073	-0.0462	0.0165	0.9585
31.2135	0.1028	4.2571	0.57235	-1.736	-0.44844	4.7401	-3.3274	758.9484	-65.5671	272.5572	67.589	743.9593	-0.0592	0.0182	-0.0073	-0.0462	0.0165	0.9585
31.225	-0.28279	3.6463	0.54439	-1.4901	-0.56908	4.0418	0.54561	756.4387	-64.5746	272.1455	64.4293	734.0103	-0.0592	0.0182	-0.0073	-0.0462	0.0165	0.9585
31.2365	-0.72531	2.6366	0.51081	-1.0981	-0.70548	2.9034	4.2726	753.3081	-63.9591	271.4308	61.738	723.8219	-0.0592	0.0182	-0.0073	-0.0462	0.0165	0.9585
31.248	-1.1576	1.1225	0.47018	-0.52641	-0.83078	1.2007	7.8095	749.3684	-63.6182	270.3389	59.4445	713.243	-0.0592	0.0182	-0.0073	-0.0462	0.0165	0.9585
31.2595	-1.4999	-0.94625	0.40878	0.24363	-0.89986	-1.12	11.1617	744.5244	-63.4974	268.8285	57.5021	702.2249	-0.0592	0.0182	-0.0073	-0.0462	0.0165	0.9585
31.271	-1.6222	-3.5542	0.31918	1.2049	-0.8563	-4.0504	14.2906	738.5815	-63.5275	266.8355	55.8514	690.6146	-0.0592	0.0182	-0.0073	-0.0462	0.0165	0.9585
31.2825	-1.3464	-6.5081	0.17993	2.2843	-0.60851	-7.3757	17.122	731.2952	-63.6578	264.2733	54.4565	678.2411	-0.0592	0.0182	-0.0073	-0.0462	0.0165	0.9585
31.294	-0.43024	-9.3791	-0.0075376	3.323	-0.06647	-10.629	19.5927	722.4147	-63.8892	261.0461	53.3224	664.9416	-0.0592	0.0182	-0.0073	-0.0462	0.0165	0.9585
31.3055	1.3892	-11.3712	-0.25355	4.0276	0.8786	-12.9238	21.6283	711.7642	-64.211	257.0856	52.4386	650.5928	-0.0592	0.0182	-0.0073	-0.0462	0.0165	0.9585
31.317	4.4209	-11.2391	-0.53391	3.9419	2.3096	-12.8648	23.2315	699.4523	-64.6618	252.417	51.8276	635.3324	-0.0592	0.0182	-0.0073	-0.0462	0.0165	0.9585
31.3285	8.8676	-7.2017	-0.82145	2.4134	4.2752	-8.4673	24.4351	685.8297	-65.2092	247.1599	51.4394	619.5018	-0.0592	0.0182	-0.0073	-0.0462	0.0165	0.9585
31.34	14.7914	3.0534	-1.0451	-1.4002	6.7208	2.8471	25.3107	671.4062	-65.8485	241.4925	51.2521	603.5732	-0.0592	0.0182	-0.0073	-0.0462	0.0165	0.9585
31.3515	21.885	22.1709	-1.0927	-8.4634	9.4162	24.0565	25.948	656.6027	-66.5141	235.5739	51.188	587.9256	-0.0592	0.0182	-0.0073	-0.0462	0.0165	0.9585
31.363	29.2954	52.7768	-0.81545	-19.7256	11.8714	58.1164	26.4261	641.4999	-67.1285	229.4551	51.1746	572.6411	-0.0592	0.0182	-0.0073	-0.0462	0.0165	0.9585
31.3745	35.3421	96.7131	0.0024603	-35.8396	13.2191	107.141	26.7888	625.7299	-67.5282	223.0459	51.0761	557.3701	-0.0592	0.0182	-0.0073	-0.0462	0.0165	0.9585
31.386	37.3554	154.0391	1.617	-56.8015	12.1789	171.271	27.0394	608.483	-67.4688	216.114	50.6919	541.3494	-0.0592	0.0182	-0.0073	-0.0462	0.0165	0.9585
31.3975	32.5793	222.6502	4.4721	-81.8131	7.2745	248.3086	27.2147	588.6257	-66.6656	208.3237	49.7681	523.4638	-0.0592	0.0182	-0.0073	-0.0462	0.0165	0.9585
31.409	20.6749	299.3222	9.0152	-109.6474	-2.1191	334.7166	27.3622	565.0105	-64.8645	199.3277	48.0608	502.5452	-0.0592	0.0182	-0.0073	-0.0462	0.0165	0.9585
31.4205	4.1202	379.1944	15.6058	-138.4733	-15.5135	424.8107	27.5241	536.4275	-61.9513	188.7455	45.4469	477.3557	-0.0592	0.0182	-0.0073	-0.0462	0.0165	0.9585
31.432	-13.9688	454.8224	24.4084	-165.6132	-31.8671	509.7289	27.6078	501.7061	-57.9682	176.192	41.9687	446.7358	-0.0592	0.0182	-0.0073	-0.0462	0.0165	0.9585
31.4435	-30.676	521.0157	34.5448	-189.2247	-49.0948	583.1439	27.4028	460.175	-53.1011	161.4243	37.8317	409.9987	-0.0592	0.0182	-0.0073	-0.0462	0.0165	0.9585
31.455	-44.4471	576.5702	44.7242	-208.9462	-65.1867	643.4743	26.4955	412.0109	-47.5546	144.47	33.3209	367.2821	-0.0592	0.0182	-0.0073	-0.0462	0.0165	0.9585
31.4665	-54.6021	623.1758	54.2337	-225.4264	-79.1086	692.5579	24.6217	358.3959	-41.6256	125.6875	28.7812	319.6385	-0.0592	0.0182	-0.0073	-0.0462	0.0165	0.9585
31.478	-61.0901	662.7763	62.3642	-239.4158	-90.1087	732.7324	21.544	301.4238	-35.5256	105.7628	24.4659	268.9724	-0.0592	0.0182	-0.0073	-0.0462	0.0165	0.9585
31.4895	-64.1094	696.563	69.0017	-251.3569	-98.1474	765.432	17.3533	243.9452	-29.4798	85.6564	20.5586	217.8294	-0.0592	0.0182	-0.0073	-0.0462	0.0165	0.9585
31.501	-63.9544	724.9661	74.057	-261.4028	-103.2722	791.2948	12.3687	189.0981	-23.6896	66.4463	17.1321	169.0341	-0.0592	0.0182	-0.0073	-0.0462	0.0165	0.9585
31.5125	-61.0178	747.9261	77.6439	-269.5251	-105.7804	810.4649	7.2611	139.6446	-18.3626	49.0993	14.1469	125.0245	-0.0592	0.0182	-0.0073	-0.0462	0.0165	0.9585
31.524	-55.9262	765.3074	80.004	-275.6465	-106.1637	823.0132	2.7451	97.5207	-13.6659	34.2974	11.5065	87.5416	-0.0592	0.0182	-0.0073	-0.0462	0.0165	0.9585
31.5355	-49.2901	776.7722	81.3897	-279.6378	-104.9297	828.8376	-0.64335	63.4753	-9.6681	22.3259	9.0909	57.2176	-0.0592	0.0182	-0.0073	-0.0462	0.0165	0.9585
31.547	-41.8204	782.3044	82.1822	-281.4777	-102.7174	828.1528	-2.744	37.5223	-6.3797	13.194	6.8587	34.086	-0.0592	0.0182	-0.0073	-0.0462	0.0165	0.9585
31.5585	-34.0393	782.2286	82.4725	-281.3069	-99.8247	821.4579	-3.6492	18.9691	-3.7782	6.6701	4.8248	17.5083	-0.0592	0.0182	-0.0073	-0.0462	0.0165	0.9585
31.57	-26.2974	777.4222	82.3509	-279.4678	-96.473	809.8482	-3.6849	6.831	-1.8602	2.4029	3.1002	6.657	-0.0592	0.0182	-0.0073	-0.0462	0.0165	0.9585
31.5815	-18.8176	769.0485	81.6752	-276.4242	-92.6105	794.5663	-3.2077	-0.17588	-0.57937	-0.059389	1.7696	0.37398	-0.0592	0.0182	-0.0073	-0.0462	0.0165	0.9585
31.593	-11.8453	758.3605	80.4078	-272.6608	-88.2872	777.0118	-2.5555	-3.442	0.16018	-1.2056	0.8616	-2.5447	-0.0592	0.0182	-0.0073	-0.0462	0.0165	0.9585
31.6045	-5.5491	746.6385	78.527	-268.6525	-83.5578	758.5405	-1.8596	-4.2456	0.51709	-1.4827	0.28877	-3.2672	-0.0592	0.0182	-0.0073	-0.0462	0.0165	0.9585
31.616	-0.17304	735.0596	76.1478	-264.8103	-78.6274	740.4179	-1.2751	-3.6138	0.60362	-1.2539	0.0015351	-2.6818	-0.0592	0.0182	-0.0073	-0.0462	0.0165	0.9585
